<?xml version="1.0" ?><svg data-name="Capa 1" id="Capa_1" viewBox="0 0 20 19.84" xmlns="http://www.w3.org/2000/svg"><path d="M14.19,8.54c-1-2.23-1.11-2.34-1.14-2.39s-.16-.2-1.54-.81a.83.83,0,0,0-.52,0,6.38,6.38,0,0,1-1,.1,6.38,6.38,0,0,1-1-.1.88.88,0,0,0-.51,0c-1.41.6-1.5.73-1.56.8s-.11.17-1.16,2.44a.9.9,0,0,0,.34,1.14l.88.57c0,.29,0,.59,0,.88a20.26,20.26,0,0,0,.11,2.2,1.29,1.29,0,0,0,.63,1,9.05,9.05,0,0,0,2.22.21,9.21,9.21,0,0,0,2.24-.21,1.27,1.27,0,0,0,.62-1,20,20,0,0,0,.11-2.19c0-.31,0-.63,0-.94l.9-.53A.9.9,0,0,0,14.19,8.54ZM10.88,5.83a1,1,0,0,1-.87.52,1,1,0,0,1-.86-.52,5.14,5.14,0,0,0,.87.09A4.92,4.92,0,0,0,10.88,5.83Zm2.68,3.41-.68.4c0-.22,0-.45-.05-.67a.27.27,0,0,0-.29-.23A.26.26,0,0,0,12.3,9a16.85,16.85,0,0,1,.11,2.14,18.87,18.87,0,0,1-.11,2.13.77.77,0,0,1-.32.58A9,9,0,0,1,10,14a8.82,8.82,0,0,1-2-.16.78.78,0,0,1-.33-.58,19.05,19.05,0,0,1-.11-2.14A18.87,18.87,0,0,1,7.65,9a.27.27,0,0,0-.24-.29A.26.26,0,0,0,7.12,9c0,.23,0,.47,0,.7l-.64-.41a.38.38,0,0,1-.14-.47C7,7.18,7.36,6.52,7.39,6.46a6.87,6.87,0,0,1,1.19-.57,1.56,1.56,0,0,0,1.43,1,1.59,1.59,0,0,0,1.44-1,10.18,10.18,0,0,1,1.17.58c.06.08.37.73,1.09,2.3A.37.37,0,0,1,13.56,9.24Z"/></svg>